<svg width="33" height="33" viewBox="0 0 33 33" fill="none" xmlns="http://www.w3.org/2000/svg">
<g clip-path="url(#clip0_53_313)">
<path d="M21.2385 9.21295L19.1182 10.4367C18.5502 9.94896 17.8978 9.56917 17.1932 9.31608V6.87545H13.0682V9.31745C12.3636 9.57055 11.7112 9.95034 11.1432 10.4381L9.01197 9.21295L6.94947 12.788L9.05185 14.0021C8.89966 14.7442 8.89966 15.5095 9.05185 16.2516L6.94947 17.463L9.01197 21.038L11.1322 19.8142C11.7002 20.3019 12.3526 20.6817 13.0572 20.9348V23.3755H17.1822V20.9335C17.8868 20.6804 18.5392 20.3006 19.1072 19.8128L21.2275 21.0366L23.29 17.4616L21.1876 16.2475C21.3398 15.5053 21.3398 14.7401 21.1876 13.998L23.301 12.788L21.2385 9.21295ZM15.1252 17.188C14.7173 17.188 14.3185 17.067 13.9794 16.8404C13.6402 16.6137 13.3758 16.2916 13.2197 15.9147C13.0636 15.5379 13.0228 15.1232 13.1024 14.7231C13.1819 14.323 13.3784 13.9555 13.6668 13.667C13.9553 13.3786 14.3228 13.1822 14.7228 13.1026C15.1229 13.023 15.5376 13.0638 15.9145 13.22C16.2914 13.3761 16.6135 13.6404 16.8401 13.9796C17.0668 14.3188 17.1877 14.7175 17.1877 15.1255C17.1877 15.6725 16.9704 16.1971 16.5836 16.5839C16.1968 16.9707 15.6722 17.188 15.1252 17.188ZM32.8228 17.0395C32.5162 16.352 32.2096 15.6411 31.903 14.9343C30.7301 11.8224 29.1981 8.85804 27.338 6.10133C25.6391 3.82378 23.3352 2.06869 20.6883 1.03569C18.0414 0.00268433 15.1577 -0.266769 12.3653 0.257974C9.57279 0.782717 6.98363 2.08059 4.89226 4.00398C2.80089 5.92738 1.29127 8.39908 0.535095 11.138C-0.10003 13.5016 -0.14883 15.9845 0.392929 18.3712C0.934688 20.758 2.05064 22.9765 3.64397 24.8343C3.95304 25.2017 4.12335 25.666 4.12522 26.1461V33.0005H23.3752V28.8755H24.6031C25.7644 28.8714 26.8854 28.4491 27.7609 27.686C28.6363 26.923 29.2076 25.8701 29.3702 24.7202L29.8377 21.313H33.0002V17.4396L32.8228 17.0395ZM26.2435 17.188L25.281 24.1565C25.2582 24.3221 25.1759 24.4739 25.0493 24.5832C24.9228 24.6925 24.7607 24.752 24.5935 24.7505H19.2502V28.8755H8.25022V26.1461C8.24745 24.6997 7.73807 23.3 6.8106 22.1902C5.64512 20.8384 4.82707 19.2226 4.42741 17.483C4.02774 15.7435 4.05853 13.9327 4.5171 12.2077C5.07509 10.21 6.18352 8.40939 7.71584 7.01146C9.24817 5.61353 11.1427 4.67459 13.1831 4.30181C15.2235 3.92902 17.3276 4.13742 19.2552 4.90322C21.1829 5.66901 22.8564 6.96134 24.0847 8.6327C25.7088 11.1291 27.0613 13.792 28.119 16.5761L28.3843 17.1866L26.2435 17.188Z" fill="url(#paint0_linear_53_313)"/>
</g>
<defs>
<linearGradient id="paint0_linear_53_313" x1="16.51" y1="-0.00317383" x2="16.51" y2="33.0005" gradientUnits="userSpaceOnUse">
<stop stop-color="#38B6FF"/>
<stop offset="1" stop-color="#ABBFD7"/>
</linearGradient>
<clipPath id="clip0_53_313">
<rect width="33" height="33" fill="white"/>
</clipPath>
</defs>
</svg>
