<svg width="33" height="33" viewBox="0 0 33 33" fill="none" xmlns="http://www.w3.org/2000/svg">
<path d="M16.5 1.37476C13.0068 1.37327 9.60407 2.48556 6.78619 4.55004C3.96831 6.61453 1.88204 9.52368 0.830467 12.8549C-0.221105 16.186 -0.183206 19.7657 0.938657 23.0739C2.06052 26.3821 4.20791 29.2464 7.06887 31.2508L7.60099 31.6248H25.399L25.9311 31.2508C28.7921 29.2464 30.9395 26.3821 32.0613 23.0739C33.1832 19.7657 33.2211 16.186 32.1695 12.8549C31.118 9.52368 29.0317 6.61453 26.2138 4.55004C23.3959 2.48556 19.9932 1.37327 16.5 1.37476V1.37476ZM24.0625 27.4998H8.93749C6.91503 25.9243 5.43508 23.7566 4.7043 21.2993C3.97353 18.842 4.02842 16.2178 4.86132 13.7933C5.69422 11.3687 7.26353 9.26473 9.35011 7.77526C11.4367 6.28578 13.9363 5.48514 16.5 5.48514C19.0637 5.48514 21.5633 6.28578 23.6499 7.77526C25.7365 9.26473 27.3058 11.3687 28.1387 13.7933C28.9716 16.2178 29.0265 18.842 28.2957 21.2993C27.5649 23.7566 26.085 25.9243 24.0625 27.4998V27.4998ZM19.2349 17.9834C19.2168 18.5122 19.0465 19.0246 18.7444 19.4591C18.4424 19.8936 18.0214 20.2317 17.5319 20.4329C17.0425 20.634 16.5054 20.6897 15.9851 20.5932C15.4648 20.4968 14.9834 20.2522 14.5986 19.889C14.2139 19.5257 13.9421 19.0591 13.8159 18.5453C13.6896 18.0314 13.7144 17.492 13.8871 16.9918C14.0598 16.4916 14.3731 16.0519 14.7895 15.7253C15.2059 15.3988 15.7077 15.1993 16.2346 15.1509L21.1846 10.194L24.101 13.1104L19.2349 17.9834ZM13.3457 22.3738L10.9739 25.7508C9.17319 24.5025 7.85337 22.6761 7.23337 20.5746C6.61337 18.473 6.73045 16.2227 7.56517 14.1969C8.3999 12.1711 9.90212 10.4915 11.8226 9.43681C13.7431 8.38211 15.9665 8.01566 18.1239 8.39826L12.3874 14.2599C11.873 14.8361 11.4869 15.515 11.2546 16.2517C11.0224 16.9884 10.9494 17.766 11.0404 18.533C11.1314 19.3001 11.3844 20.039 11.7825 20.7009C12.1807 21.3628 12.7149 21.9325 13.3499 22.3724L13.3457 22.3738ZM26.125 17.8748C26.1228 19.4199 25.7493 20.9419 25.036 22.3126C24.3226 23.6832 23.2904 24.8624 22.0261 25.7508L19.6542 22.3738C20.0887 22.0685 25.9572 16.1258 25.9572 16.1258C26.0669 16.7023 26.1231 17.2878 26.125 17.8748V17.8748Z" fill="url(#paint0_linear_55_389)"/>
<defs>
<linearGradient id="paint0_linear_55_389" x1="16.5" y1="1.37476" x2="16.5" y2="31.6248" gradientUnits="userSpaceOnUse">
<stop stop-color="#3695D9"/>
<stop offset="1" stop-color="#C4B4B8"/>
</linearGradient>
</defs>
</svg>
