<svg width="33" height="33" viewBox="0 0 33 33" fill="none" xmlns="http://www.w3.org/2000/svg">
<g clip-path="url(#clip0_55_402)">
<path d="M16.4136 10.2332C17.1373 10.2337 17.8553 10.3607 18.5352 10.6086L19.1828 10.8437C18.731 9.99053 18.0852 9.25531 17.2974 8.69718C16.5096 8.13905 15.6018 7.77359 14.6471 7.6302C13.6923 7.4868 12.7172 7.56948 11.8003 7.87157C10.8833 8.17366 10.05 8.68673 9.36742 9.36953C8.68485 10.0523 8.17205 10.8858 7.87026 11.8029C7.56847 12.7199 7.48612 13.695 7.62983 14.6497C7.77354 15.6044 8.1393 16.5121 8.69769 17.2997C9.25608 18.0873 9.99151 18.7329 10.8448 19.1845L10.6111 18.5396C10.2724 17.6056 10.1632 16.6039 10.2929 15.619C10.4226 14.634 10.7873 13.6947 11.3562 12.8802C11.9252 12.0658 12.6816 11.4001 13.5618 10.9394C14.442 10.4788 15.4201 10.2365 16.4136 10.2332Z" fill="url(#paint0_linear_55_402)"/>
<path d="M4.12501 13.75C4.14241 11.333 5.06854 9.01107 6.71934 7.24558C8.37014 5.48009 10.6248 4.40033 13.0351 4.22087C15.4455 4.04142 17.8352 4.7754 19.7292 6.27697C21.6232 7.77854 22.883 9.93775 23.2581 12.3255L27.5 13.8655C27.5 13.827 27.5 13.7885 27.5 13.75C27.5 11.0305 26.6936 8.37209 25.1827 6.11091C23.6718 3.84974 21.5244 2.08737 19.0119 1.04666C16.4994 0.00595766 13.7348 -0.266338 11.0675 0.264209C8.40028 0.794755 5.95026 2.10432 4.02729 4.02729C2.10432 5.95026 0.794755 8.40028 0.264209 11.0675C-0.266338 13.7348 0.00595766 16.4994 1.04666 19.0119C2.08737 21.5244 3.84974 23.6718 6.11091 25.1827C8.37209 26.6936 11.0305 27.5 13.75 27.5C13.7899 27.5 13.827 27.5 13.8669 27.5L12.3269 23.2636C10.0471 22.9228 7.96529 21.7751 6.46011 20.0292C4.95494 18.2833 4.12634 16.0552 4.12501 13.75Z" fill="url(#paint1_linear_55_402)"/>
<path d="M32.9997 18.7946L17.5997 13.1997C16.9857 12.9782 16.3214 12.9361 15.6844 13.0783C15.0474 13.2205 14.4641 13.541 14.0025 14.0025C13.541 14.4641 13.2205 15.0474 13.0783 15.6844C12.9361 16.3214 12.9782 16.9857 13.1997 17.5997L18.7946 32.9997L24.4389 27.3622L30.0833 32.9997L32.9997 30.0833L27.3622 24.4389L32.9997 18.7946ZM17.5749 17.5749L25.5018 20.4624L20.4569 25.5073L17.5749 17.5749Z" fill="url(#paint2_linear_55_402)"/>
</g>
<defs>
<linearGradient id="paint0_linear_55_402" x1="13.372" y1="7.56177" x2="13.372" y2="19.1845" gradientUnits="userSpaceOnUse">
<stop stop-color="#3697DC"/>
<stop offset="1" stop-color="#C5B7BA"/>
</linearGradient>
<linearGradient id="paint1_linear_55_402" x1="13.75" y1="0" x2="13.75" y2="27.5" gradientUnits="userSpaceOnUse">
<stop stop-color="#3697DC"/>
<stop offset="1" stop-color="#C5B7BA"/>
</linearGradient>
<linearGradient id="paint2_linear_55_402" x1="22.9977" y1="12.9957" x2="22.9977" y2="32.9997" gradientUnits="userSpaceOnUse">
<stop stop-color="#3697DC"/>
<stop offset="1" stop-color="#C5B7BA"/>
</linearGradient>
<clipPath id="clip0_55_402">
<rect width="33" height="33" fill="white"/>
</clipPath>
</defs>
</svg>
